<svg height="80" viewBox="0 0 307 80" width="307" xml:space="preserve" xmlns="http://www.w3.org/2000/svg"><g fill="#212121"><path d="M121.543 66.291c-6.717 0-10.08-3.085-10.08-17.887 0-14.708 3.363-17.886 10.08-17.886 7.034 0 10.082 3.179 10.082 17.886 0 14.802-3.047 17.887-10.082 17.887m0-49.487c-19.313 0-34.016 6.955-34.016 31.6C87.527 73.045 102.23 80 121.543 80c19.741 0 34.018-6.955 34.018-31.596.001-24.645-14.277-31.6-34.018-31.6m68.665 0c-19.942 0-33.176 10.832-33.176 31.6C157.032 70.961 171.94 80 190.208 80c10.606 0 18.165-2.778 24.779-6.656l-4.408-15.998h-7.559c-.84 4.274-4.098 8.051-9.869 8.051-7.875 0-12.183-3.282-12.183-16.992 0-13.715 4.414-16.993 12.077-16.993 5.248 0 8.818 2.784 9.975 7.847h7.559l4.408-15.8c-5.039-2.878-12.387-6.655-24.779-6.655m-154.3 16.415V14.75h7.454c6.775 0 9.76 4.233 9.76 9.365 0 5.001-3.525 9.104-10.301 9.104h-6.913M48.105 0H2.842L0 13.21c5.825 0 6.907 1.67 6.907 6.03v40.532c0 4.358-1.082 6.024-6.907 6.024l2.842 13.211h37.132l2.847-13.211c-5.827 0-6.913-1.666-6.913-6.024V48.998h3.524c16.399 0 4.607 16.416 16.399 30.01h31.034l2.842-13.211h-2.164c-5.968 0-7.187-1.666-7.187-6.024v-2.181c0-4.749-3.114-12.569-14.093-14.881 10.301-3.977 15.449-10.391 15.449-19.883C81.712 7.569 69.248 0 48.105 0m253.336 0h-34.154l-3.655 13.342c3.793 0 5.148 2.18 1.082 5.516l-9.753 7.947c-1.356 1.03-4.613 4.618-4.613 4.618s.678-4.486.678-6.923v-5.26c0-4.359 1.088-6.03 6.913-6.03L255.092 0h-37.128l-2.848 13.21c5.827 0 6.914 1.67 6.914 6.03v40.532c0 4.358-1.087 6.024-6.914 6.024l3.704 13.247 36.271-.036 2.847-13.211c-5.825 0-6.913-1.666-6.913-6.024V52.46l3.388-2.564c1.355-1.028 3.388-1.538 4.744-1.538 11.656 0 4.202 19.618 13.552 30.649h29.679l3.661-13.211h-2.573c-14.771 0 .676-28.986-28.323-32.962l4.648-3.75 12.694-10.228c5.149-4.108 7.859-5.516 12.603-5.516L301.441 0M120.399.85h-6.823l-.524 2.187c1.071 0 1.27.272 1.27.998v6.703c0 .719-.199.992-1.27.992l.524 2.185h12.276l.545-3.86-2.116-.315c-.3 1.019-.62 1.313-2.264 1.313h-2.37V4.035c0-.726.179-.998 1.271-.998L120.399.85m13.195 6.999.698-2.097c.274-.83.773-3.079.773-3.079s.3 2.206.572 3.079l.647 2.097h-2.69M140.518.85h-10.039l-.52 2.187c1.046 0 1.171.424.946.998l-2.542 6.786c-.294.762-.62.909-1.591.909l.524 2.185h5.626l.524-2.185c-.698 0-1.071-.209-.85-.909l.1-.32h4.407l.1.32c.226.699-.073.909-.672.909l.524 2.185h6.672l.525-2.185c-1.046 0-1.318-.167-1.598-.909l-2.588-6.875c-.221-.572-.075-.909.972-.909l-.52-2.187m39.79 0h-6.824l-.526 2.187c1.074 0 1.272.272 1.272.998v6.703c0 .719-.198.992-1.272.992l.526 2.185h6.824l.521-2.185c-1.072 0-1.271-.273-1.271-.992V4.035c0-.726.199-.998 1.271-.998L180.308.85M106.027.641c-4.728 0-7.868 2.31-7.868 6.744 0 4.812 3.54 6.744 7.868 6.744 2.517 0 4.307-.593 5.877-1.423l-1.044-3.415h-1.792c-.199.915-.972 1.719-2.342 1.719-1.865 0-2.89-.7-2.89-3.625 0-2.931 1.046-3.63 2.863-3.63 1.245 0 2.095.595 2.369 1.677h1.792l1.044-3.373c-1.19-.614-2.935-1.418-5.877-1.418m45.369 0c-3.582 0-6.55 1.46-6.55 4.26 0 2.883 2.689 3.881 5.231 4.244 2.243.315 2.889.614 2.889 1.355 0 .788-.898 1.124-1.744 1.124-1.443 0-3.087-.594-3.586-1.949h-1.865l-1.019 3.177c1.266.572 3.536 1.276 6.571 1.276 3.487 0 6.75-1.402 6.75-4.474 0-3.162-2.517-4.008-5.877-4.497-1.619-.236-2.344-.489-2.344-1.124 0-.553.552-.956 1.57-.956 1.146 0 2.615.509 3.262 1.633h1.817l.998-3.016c-1.244-.502-3.486-1.053-6.103-1.053m14.12 0c-3.588 0-6.55 1.46-6.55 4.26 0 2.883 2.688 3.881 5.23 4.244 2.238.315 2.89.614 2.89 1.355 0 .788-.897 1.124-1.744 1.124-1.444 0-3.088-.594-3.588-1.949h-1.864l-1.023 3.177c1.27.572 3.534 1.276 6.575 1.276 3.483 0 6.745-1.402 6.745-4.474 0-3.162-2.511-4.008-5.872-4.497-1.624-.236-2.344-.489-2.344-1.124 0-.553.546-.956 1.57-.956 1.145 0 2.61.509 3.262 1.633h1.817l.994-3.016c-1.245-.502-3.482-1.053-6.098-1.053m24.252 0c-4.731 0-7.869 2.31-7.869 6.744 0 4.812 3.536 6.744 7.869 6.744 2.515 0 4.308-.593 5.878-1.423L194.6 9.292h-1.797c-.198.915-.971 1.719-2.337 1.719-1.869 0-2.889-.7-2.889-3.625 0-2.931 1.046-3.63 2.863-3.63 1.244 0 2.091.595 2.362 1.677h1.797l1.046-3.373c-1.197-.615-2.94-1.419-5.877-1.419M89.156.641l-1.765 5.18-5.689.01 4.597 3.204-1.776 5.2 4.617-3.22 4.611 3.22-1.759-5.206 4.591-3.198-5.672-.01-1.755-5.18M205.489.493l-1.765 5.18-5.687.01 4.595 3.204-1.776 5.2 4.618-3.214 4.612 3.214-1.761-5.204 4.591-3.2-5.673-.01-1.754-5.18"></path></g></svg>