<svg height="912.192" viewBox="0 0 940.708 912.192" width="940.708" xmlns="http://www.w3.org/2000/svg"><path d="m337.7 45.392s140.219-13.73 227.485 130.408 50 234.347 45.1 250.029-21.753 39.61-51.264 57.31c-13.615 9.991-11.8 7.265-14.982 15.888s-2.718 16.8-6.8 23.614-13.17 16.794-21.341 8.624-11.35-20.888-19.974-8.624-25.426 27.238-42.674 8.624c-11.8-14.982-9.538-12.717-12.256-9.991s-30.418 40.409-50.844 21.341-19.15-20.326-19.15-20.326-5.37-9.637-12.635 3.072c-9.077 12.717-9.637 13.7-16.827 18.351s-19.883 13.113-34.964-7.751-11.276-17.338-18.326-20.443-44.823-7.611-67.235-11.136-95.578-12.914-149.643-70.208c-32.7-38.2-37.551-86.443-42.41-101.005s-20.16-135.063 42.056-195.869 100.609-93.44 266.684-91.908z" fill="#fff" transform="translate(2.505 126.226)"/><path d="m92.913 48.76s34.494 17.354 62.128 50.04c-1.409 0-58.982-7.874-80.57 12.495-.404-7.259 17.634-60.113 18.442-62.535z" fill="#d3d3d3" transform="translate(369.687 153.143)"/><path d="m78.78 108.685c-7.38 1.952-22.478 7.611-26.629 41.85s-5.189 64 10.724 91.319 54.65 58.455 109.3 60.531 89.243-27.667 105.5-47.731 28.367-66.065 10.724-75.406c-6.573-3.805-25.253 2.768-25.945 1.038s-6.573-26.637-19.026-24.215-19.71 3.113-19.71 3.113-5.535-.346-2.076-5.881 9.686-26.283 6.919-34.239-7.611-15.221-24.216 6.919-20.064 27.667-22.832 37.7 1.038 29.75 22.486 44.972c-.692.692-8.3 7.256-10.378 13.483-5.535-7.948-18.335-34.239-40.466-14.867-6.919 7.611-9.34 13.829-13.491 16.6a12.682 12.682 0 0 1 -7.611 2.422s1.73-26.975-5.881-32.51-21.794-6.573-29.059-1.384-22.83 19.021-17.641-.699 22.828-89.242-.692-83.015z" fill="#fff" transform="translate(189.197 583.952)"/><path d="m99.9 111.049s7.2 2.257 3.6 16.21-19.356 34.206-1.8 33.753 22.511-4.95 28.812 1.8 13.648 33.235 13.648 33.235-7.281 17.1-5.741 28.161c-7.019-14.13-25.019-36.188-35.819-28.536l-9.9 4.95s-31.515-25.657-28.36-40.054 23.853-50.416 35.56-49.519z" fill="#d3d3d3" transform="translate(294.816 603.786)"/><path d="m95.742 124.477c19.117 0 1.425 64.212-2.092 83.412-1.7 9.291-.255 12.47 2.66 12.47 5.28 0 15.345-10.452 20.031-13.8a14.136 14.136 0 0 1 8.41-2.669c5.23 0 10.724 2.529 15.592 6.07 7.611 5.535 5.881 32.51 5.881 32.51a3.778 3.778 0 0 0 .4.016 13.354 13.354 0 0 0 7.215-2.438c4.151-2.768 6.573-8.986 13.491-16.6 5.733-5.024 10.848-6.976 15.361-6.976 12.923 0 21 15.954 25.105 21.843 2.076-6.219 9.686-12.791 10.378-13.483-21.448-15.221-25.253-34.94-22.486-44.972s6.227-15.567 22.832-37.7c8.253-11.012 13.6-14.752 17.231-14.743 3.674 0 5.593 3.822 6.985 7.825 2.767 7.956-3.459 28.7-6.919 34.239s2.076 5.881 2.076 5.881 7.265-.692 19.718-3.113a9.206 9.206 0 0 1 1.68-.165c11.3 0 16.679 22.733 17.338 24.38.082.206.428.3.98.3 2.982 0 11.976-2.537 18.821-2.537a12.64 12.64 0 0 1 6.144 1.2c17.643 9.34 5.535 55.341-10.724 75.406-15.715 19.4-48.563 47.838-100.1 47.838-1.779 0-3.575-.033-5.4-.1-54.65-2.076-93.386-33.21-109.3-60.539s-14.881-57.062-10.729-91.309 19.249-39.9 26.637-41.85a10.636 10.636 0 0 1 2.784-.4m0-17.247a28.222 28.222 0 0 0 -7.2.972c-22.28 5.9-35.516 24.891-39.346 56.445-4.052 33.44-6.392 68.874 12.94 102.076 17.692 30.376 60.662 66.7 123.557 69.088q3.064.111 6.054.115c62.779 0 100.288-37.921 113.5-54.23 14.645-18.071 27.041-53.5 22.156-77.424-2.842-13.9-10.485-20.682-16.514-23.944a28.993 28.993 0 0 0 -14.455-3.344 62.207 62.207 0 0 0 -8.36.634c-6.96-15.122-16.6-22.766-28.779-22.774l-.354.008c1.87-8.731 2.562-18.12.074-25.27-5.873-16.885-17.091-19.405-23.26-19.405h-.008c-13.039 0-23 10.938-31.027 21.637-17.247 23-22.016 30.269-25.657 43.464a47.2 47.2 0 0 0 .231 24.125c-6.836.7-13.541 3.5-20 8.36a27.237 27.237 0 0 0 -8.8-11.754c-8.434-6.128-17.33-9.365-25.739-9.365a31.755 31.755 0 0 0 -9.274 1.367c7.693-37.312 9.192-59.2-.947-71.8a23.671 23.671 0 0 0 -18.788-8.986z" fill="#050606" transform="translate(166.692 576.265)"/><path d="m156.446 139.694c-3.369-4.942-6.639-10.114-10.914-13.936-2.084-1.845-4.695-3.237-6.589-2.463-1.952.634-3.517 3.047-4.695 5.494a114.774 114.774 0 0 0 -5.675 16.572q-1.124 4.262-1.985 8.591l-.824 4.382-.478 2.372-.231.824a5.661 5.661 0 0 1 -.338.758 4.573 4.573 0 0 1 -.881 1.071 3.091 3.091 0 0 1 -1.433.717 3.7 3.7 0 0 1 -2.586-.379 3.985 3.985 0 0 1 -1.343-1.392l-.239-.494-.222-.634-.206-.8.4 1.054a109.763 109.763 0 0 0 -10.831-14.447c-3.937-4.324-8.129-8.418-12.709-10.609-4.489-2.413-9.349-2.265-14.323.362-4.942 2.627-9.324 7.125-13.755 11.6a.442.442 0 0 1 -.626 0c-.124-.124 5.634-12.034 11-16.555a20.693 20.693 0 0 1 9.9-4.662 21.256 21.256 0 0 1 11.251 1.351c6.894 2.908 11.8 7.891 15.839 13.063a117.076 117.076 0 0 1 10.238 16.432l.329.618.066.437.049.3c-.016-.049.041.156-.049-.1l-.124-.239a3.108 3.108 0 0 0 -1.178-1.17 3.435 3.435 0 0 0 -2.446-.379 3.2 3.2 0 0 0 -1.318.659 3.138 3.138 0 0 0 -.717.84 1.715 1.715 0 0 0 -.115.247l.1-.255.544-2 1.145-4.407c.8-2.957 1.689-5.9 2.677-8.8a114.283 114.283 0 0 1 7.207-17.008c1.639-2.669 3.706-5.815 7.693-6.861 4.209-.848 7.265 1.861 9.34 4 4.266 4.687 6.91 10.139 9.8 15.394a.432.432 0 0 1 -.173.585.437.437 0 0 1 -.575-.133z" fill="#050606" transform="translate(308.121 666.393)"/><path d="m62.063 120.522a37.147 37.147 0 0 1 32.18 5.749c9.2 8.624 9.167 15.567 9.167 15.567l-8.591 8s-18.383-37.355-32.756-29.316z" fill="#050606" transform="translate(279.944 662.075)"/><path d="m364.235 61.034c33.8 0 145.359 9.76 219.249 131.81 87.967 145.293 50.408 236.233 45.466 252.047s-21.926 39.923-51.668 57.771c-13.73 10.065-11.9 7.314-15.106 16.012s-2.743 16.934-6.861 23.8c-3.023 5.033-8.747 11.786-14.834 11.786a9.318 9.318 0 0 1 -6.68-3.089c-5.782-5.782-9.085-13.821-13.549-13.821-1.894 0-3.995 1.441-6.581 5.123-5.749 8.168-15.089 17.527-25.78 17.527-5.494 0-11.342-2.463-17.239-8.83-7.421-9.414-9.324-12.075-10.37-12.075-.634 0-.955.972-1.985 2.01-2.2 2.191-20.484 26.909-38.251 26.909a18.562 18.562 0 0 1 -13.006-5.4c-20.591-19.224-19.306-20.493-19.306-20.493s-1.96-3.525-5.123-3.525c-2.084 0-4.695 1.532-7.6 6.63-9.151 12.808-9.719 13.8-16.967 18.491-3.674 2.38-8.772 5.741-14.883 5.741-5.947 0-12.857-3.179-20.361-13.549-15.2-21.036-11.366-17.478-18.475-20.608s-45.186-7.677-67.779-11.226-96.346-13.019-150.846-70.782c-32.955-38.506-37.856-87.135-42.748-101.813s-20.32-136.15 42.393-197.438c61.3-59.9 99.7-92.7 257.739-92.7 3.641 0 7.322.016 11.095.049 0 0 3.616-.354 10.057-.354m0-17.247c-5.288 0-8.978.222-10.691.346-3.534-.025-6.993-.041-10.419-.041-162.392 0-204.2 33.473-269.83 97.612-70.48 68.874-51.767 200.033-46.7 215.23.717 2.166 1.7 6.5 2.743 11.086 4.967 21.86 14.2 62.54 43.258 96.491l.272.313.288.3c56.552 59.938 132.946 71.7 158.052 75.562l2.66.412c6.581 1.038 14.463 2.158 22.519 3.3 14.62 2.076 36.71 5.205 41.389 6.836.239.107.494.222.766.338.741 1.021 1.73 2.413 2.743 3.855 1.828 2.594 4.242 6.013 7.536 10.568 9.933 13.739 21.481 20.7 34.338 20.7 11.111 0 19.545-5.461 24.076-8.393 7.7-4.983 10.823-8.055 15.864-14.826 3.2 3.253 7.2 7.092 12.174 11.737a35.86 35.86 0 0 0 24.776 10.04c15.674 0 29.314-9.793 39.931-20.336 10.362 10.123 20.8 12.322 27.914 12.322 11.317 0 22.469-5.42 32.189-15.485.494.535 1 1.071 1.532 1.606a26.242 26.242 0 0 0 18.87 8.138c15.814 0 25.986-14.093 29.619-20.155 3.937-6.556 5.23-13.253 6.276-18.631a52.254 52.254 0 0 1 1.985-8.08l.7-1.927.058-.156c.56-.4 1.227-.865 2.018-1.425 1.524-1.079 3.385-2.405 5.708-4.1 34.215-20.748 52.689-48.167 58.57-67 .214-.684.494-1.524.832-2.52 32.88-98.015-7.957-197.447-48.011-263.595-78.721-130.019-199.017-140.125-234.006-140.125z" fill="#050606" transform="translate(-20.54 117.156)"/><path d="m117.868 91.445a4.632 4.632 0 0 0 -5.79.313c-5.395 4.654-17.387 15.559-25.229 27.057-10.378 15.23-27.337 32.885-10.378 50.185 15.271 15.584 33.638-8.426 37.13-13.343.329-.461.75-.428.964.1 2.084 5.057 12.553 28.326 25.229 18.433 13.623-10.633 1.416-64.929-21.926-82.745z" fill="#040405" transform="translate(332.096 455.726)"/><path d="m137.23 184.706a13.263 13.263 0 0 1 -3.377-.445c-7.619-2.018-13.4-10.625-16.86-17.338-5.2 6.087-14.093 14.521-24 15.3-5.889.428-11.21-1.7-15.839-6.424-17.371-17.725-3.962-36.307 5.823-49.881 1.409-1.944 2.792-3.863 4.069-5.741 7.924-11.614 19.669-22.469 25.978-27.906a8.954 8.954 0 0 1 11.226-.469c17.964 13.706 29.2 45.845 29.314 67.77.049 10.469-2.487 18.005-7.347 21.8a14.468 14.468 0 0 1 -8.987 3.334zm-18.862-29.866a4.823 4.823 0 0 1 3.937 3.048c3.319 8.055 8.854 16.745 13.755 18.046 1 .239 2.6.387 4.843-1.367 2.57-1.993 4.069-7.578 4.036-14.949-.1-19.545-10.765-49.37-25.9-60.934-5.214 4.283-17.231 15.147-24.874 26.357-1.318 1.936-2.751 3.912-4.2 5.93-11.441 15.864-18.1 27.131-6.655 38.794 2.792 2.858 5.749 4.135 8.994 3.863 7.578-.593 16.333-9.357 21.539-16.671l1.474-2.076zm2.52 7.092-.008.016z" fill="#161615" transform="translate(328.334 451.939)"/><path d="m119.71 70.441s-50.07-12.215-39.082 69.608c9.777 46.4 15.88 26.859 13.434 76.93s2.446 69.607 42.748 65.942 56.173-111.12 23.2-178.289c-20.763-36.632-21.982-34.191-40.3-34.191z" fill="#040405" transform="translate(402.884 305.368)"/><path d="m131.893 291.447c-12.4 0-21.209-2.825-27.321-8.7-11.251-10.78-12.572-30.967-11.045-62.184 1.458-29.94-.082-33.828-3.8-43.209-2.422-6.112-5.733-14.472-9.554-32.625-4.4-32.666.041-55.037 13.129-66.807 12.182-10.963 27.444-8.64 30.615-8.006l2.743-.016c17.89-.124 21.292 1.87 40.853 36.4 26.11 53.167 22.239 126.695 2.315 162.162-7.723 13.738-17.706 21.538-28.858 22.548q-4.831.433-9.077.437zm-15.081-213.574a26.206 26.206 0 0 0 -17.812 6.527c-10.633 9.645-14.2 30-10.329 58.867 3.624 17.124 6.779 25.1 9.085 30.928 4.077 10.3 5.93 14.991 4.382 46.784-1.367 28.013-.437 47.072 8.41 55.556 5.576 5.354 15.032 7.207 29.643 5.889 10.37-.939 17.75-10.4 22.123-18.186 18.466-32.864 22.016-104.151-2.405-153.917-18.112-31.925-19.5-31.884-33.177-31.793l-3.772.016-.494-.115a26.278 26.278 0 0 0 -5.654-.556z" fill="#161615" transform="translate(399.119 301.577)"/><path d="m96.87 71.479s-50.062-12.215-39.07 69.608c9.769 46.4 15.872 26.859 13.434 76.93s2.438 69.607 42.74 65.942 56.173-111.128 23.2-178.289c-20.759-36.637-21.986-34.191-40.304-34.191z" fill="#040405" transform="translate(237.658 312.88)"/><path d="m109.046 292.487c-12.4 0-21.193-2.833-27.312-8.7-11.252-10.78-12.57-30.968-11.046-62.187 1.458-29.948-.074-33.836-3.789-43.209-2.422-6.12-5.733-14.48-9.554-32.625-4.4-32.666.033-55.037 13.129-66.815 12.174-10.946 27.436-8.64 30.615-8l2.726-.016c17.857-.157 21.3 1.861 40.87 36.4 26.11 53.167 22.231 126.687 2.306 162.153-7.718 13.739-17.7 21.539-28.869 22.552q-4.83.447-9.076.447zm-15.065-213.587a26.179 26.179 0 0 0 -17.816 6.532c-10.633 9.649-14.208 30.01-10.328 58.868 3.616 17.116 6.77 25.089 9.077 30.912 4.077 10.3 5.939 15 4.39 46.8-1.367 28.013-.437 47.072 8.4 55.556 5.584 5.346 15 7.207 29.643 5.881 10.37-.939 17.75-10.4 22.123-18.186 18.466-32.864 22.025-104.151-2.405-153.908-18.1-31.925-19.545-31.933-33.177-31.793l-3.772.016-.486-.115a25.819 25.819 0 0 0 -5.649-.563z" fill="#161615" transform="translate(233.892 309.088)"/><path d="m115.079 70.486s28.49 36.315 33.523 63.693 10.057 54.757 1.112 89.952-12.289 35.755-22.346 44.7-39.107 5.024-45.252-1.68c13.969.56 40.227 4.472 50.284-12.289s16.2-31.843 16.761-62.573-2.24-59.781-11.737-77.663-31.842-44.14-22.345-44.14z" fill="#686969" transform="translate(425.059 310.365)"/><path d="m92.167 71.655s28.49 36.315 33.523 63.693 10.057 54.748 1.12 89.952-12.3 35.755-22.354 44.692-39.108 5.032-45.256-1.672c13.969.56 40.227 4.472 50.284-12.289s16.2-31.851 16.761-62.581-2.24-59.781-11.737-77.654-31.838-44.141-22.341-44.141z" fill="#686969" transform="translate(259.255 318.824)"/><path d="m110 100.237s-4.983-3.838-6.515-1.532-9.587 22.618-33.358 8.813c-2.685 0 2.3 8.055 10.353 10.732s23.385-1.144 29.52-18.013z" fill="#686969" transform="translate(333.011 509.236)"/><path d="m76.609 91.1s17.3 8.467 25.418 38.473 5.3 32.131 2.117 36.719-5.3 6.7-9.884 6.7-5.65 1.409-4.588 0 13.763-6 13.417-14.117-2.825-39.544-21.539-59.312c-5.996-7.053-9.175-9.524-4.941-8.463z" fill="#686969" transform="translate(371.181 457.841)"/><path d="m80.968 121.964-.3-.016a4.3 4.3 0 0 1 -3.995-4.6c2.125-29.742-5.131-44.955-5.2-45.1a4.312 4.312 0 0 1 7.718-3.846c.346.692 8.393 17.206 6.079 49.559a4.321 4.321 0 0 1 -4.302 4.003z" fill="#050606" transform="translate(344.83 277.987)"/><path d="m64.356 136.365c9.6-4.11 23.3 2.059 23.3 2.059m-2.685-6.268s-13.706-6.169-23.3-2.051" fill="#040405" transform="translate(277.107 731.548)"/><path d="m89.108 141.524a1.771 1.771 0 0 1 -.675-.14c-.132-.058-13.179-5.831-21.975-2.043a1.645 1.645 0 0 1 -2.166-.873 1.663 1.663 0 0 1 .865-2.175c10.147-4.341 24.043 1.82 24.627 2.076a1.649 1.649 0 0 1 -.675 3.155zm-2.677-6.26a1.613 1.613 0 0 1 -.675-.148c-.14-.058-13.2-5.832-21.983-2.043a1.653 1.653 0 0 1 -1.3-3.039c10.156-4.341 24.043 1.8 24.636 2.076a1.652 1.652 0 0 1 -.675 3.155z" fill="#161615" transform="translate(275.656 730.095)"/><path d="m64.68 130.314c4.11 9.6-2.059 23.309-2.059 23.309m6.268-2.685s6.169-13.714 2.059-23.309" fill="#040405" transform="translate(283.982 723.884)"/><path d="m64.073 156.719a1.74 1.74 0 0 1 -.675-.14 1.654 1.654 0 0 1 -.832-2.183c.058-.132 5.823-13.178 2.043-21.983a1.649 1.649 0 1 1 3.031-1.3c4.357 10.139-1.8 24.051-2.067 24.636a1.643 1.643 0 0 1 -1.5.97zm6.26-2.685a1.8 1.8 0 0 1 -.675-.14 1.646 1.646 0 0 1 -.824-2.183c.058-.132 5.815-13.179 2.043-21.983a1.649 1.649 0 1 1 3.031-1.3c4.349 10.139-1.8 24.051-2.067 24.635a1.645 1.645 0 0 1 -1.509.971z" fill="#161615" transform="translate(282.538 722.436)"/><path d="m80.829 96.5s14.76 14.282 34.758 11.424" fill="#040405" transform="translate(415.746 498.61)"/><path d="m111.653 111.414c-17.618 0-29.956-11.721-30.525-12.273a1.654 1.654 0 0 1 2.3-2.38c.148.148 14.48 13.722 33.383 10.979a1.578 1.578 0 0 1 1.87 1.4 1.66 1.66 0 0 1 -1.4 1.87 40.29 40.29 0 0 1 -5.628.404z" fill="#161615" transform="translate(414.294 497.153)"/><path d="m57.961 97.249s11.086 10.724 26.11 8.582" fill="#040405" transform="translate(250.26 504.037)"/><path d="m81.109 108.452c-13.228 0-22.494-8.813-22.922-9.225a1.238 1.238 0 0 1 1.721-1.779c.115.1 10.815 10.287 25.072 8.245a1.206 1.206 0 0 1 1.4 1.046 1.235 1.235 0 0 1 -1.046 1.409 30.027 30.027 0 0 1 -4.225.304z" fill="#161615" transform="translate(249.169 502.948)"/><path d="m114.54 182.174a2.742 2.742 0 0 1 -1.1-.222c-73.852-30.852-85.804-93.352-85.919-93.996a2.856 2.856 0 0 1 2.306-3.311 2.905 2.905 0 0 1 3.319 2.306c.107.6 11.63 60.119 82.5 89.729a2.856 2.856 0 0 1 -1.1 5.494z" fill="#161615" transform="translate(29.65 412.638)"/><path d="m96.432 172.624a2.538 2.538 0 0 1 -1.128-.28c-60.787-31.818-66.355-86.088-66.404-86.644a2.448 2.448 0 0 1 4.876-.437c.049.519 5.477 52.2 63.8 82.728a2.454 2.454 0 0 1 -1.145 4.629z" fill="#161615" transform="translate(39.884 401.192)"/><path d="m97.633 171.56a2.433 2.433 0 0 1 -1.128-.28c-60.778-31.826-66.354-86.089-66.412-86.632a2.452 2.452 0 0 1 4.884-.445c.049.527 5.477 52.2 63.8 82.736a2.452 2.452 0 0 1 -1.145 4.621z" fill="#161615" transform="translate(48.526 393.51)"/><path d="m131.962 66.465a1.962 1.962 0 0 1 -1.1-.346c-.338-.239-34.445-23.334-82.769-3.566a1.939 1.939 0 0 1 -1.466-3.591c50.325-20.616 86.105 3.723 86.459 3.97a1.943 1.943 0 0 1 -1.12 3.534z" fill="#161615" transform="translate(159.448 167.034)"/><path d="m120.741 69.053a1.69 1.69 0 0 1 -1.063-.387c-.271-.222-27.678-22.486-70.414-9.184a1.661 1.661 0 1 1 -.988-3.171c44.5-13.879 73.248 9.563 73.536 9.793a1.668 1.668 0 0 1 -1.071 2.949z" fill="#161615" transform="translate(171.706 176.018)"/><path d="m120.676 70.13a1.68 1.68 0 0 1 -1.062-.379c-.272-.231-27.714-22.469-70.414-9.184a1.661 1.661 0 1 1 -.988-3.171c44.527-13.879 73.256 9.563 73.536 9.793a1.67 1.67 0 0 1 .214 2.347 1.691 1.691 0 0 1 -1.286.594z" fill="#161615" transform="translate(171.236 183.87)"/><path d="m64.438 167.521a2.379 2.379 0 0 1 -1.73-.75c-17.947-19.331-18.145-39.824-18.145-40.689a2.346 2.346 0 0 1 2.347-2.347 2.357 2.357 0 0 1 2.356 2.339c0 .206.264 19.587 16.893 37.493a2.351 2.351 0 0 1 -1.721 3.953z" fill="#050606" transform="translate(153.304 695.705)"/><path d="m58.335 156.89a1.72 1.72 0 0 1 -1.252-.552c-13.063-14.068-13.211-28.993-13.211-29.619a1.71 1.71 0 0 1 1.7-1.713h.008a1.722 1.722 0 0 1 1.713 1.713c0 .132.189 14.249 12.3 27.288a1.718 1.718 0 0 1 -1.26 2.883z" fill="#050606" transform="translate(148.304 704.902)"/><path d="m90.195 137.435a1.153 1.153 0 0 1 -1.153-1.137c0-.091-.124-9.546-8.228-18.269a1.154 1.154 0 0 1 .058-1.623 1.17 1.17 0 0 1 1.623.058c8.747 9.423 8.854 19.414 8.854 19.834a1.142 1.142 0 0 1 -1.153 1.137z" fill="#050606" transform="translate(413.422 640.509)"/><path d="m88.247 131.73a.835.835 0 0 1 -.832-.832 21.658 21.658 0 0 0 -5.988-13.3.833.833 0 0 1 1.219-1.137c6.367 6.861 6.441 14.126 6.441 14.439a.842.842 0 0 1 -.84.832z" fill="#050606" transform="translate(418.451 641.116)"/><path d="m28.757 268.394s204.662-119.394 329.314 15.723c4.8 2.6 26.983 4.308 55.976-5.164 14.991-22.494 60.152-113.121 57.195-234.89-.156-6.507-26.588-14.743-52.014-18.326-22.733-3.2-111.12 5.84-111.12 5.84l-18.326 22.164a41.094 41.094 0 0 0 -8.64-20.056c-88.461 22.864-187.201 85.759-252.385 234.709z" fill="#303030" transform="translate(38.923 -18.422)"/><path d="m87.1 168.848c3.9-8.368 14.842-21.72 27.543-34.445 12.775-12.676 27.172-24.726 36.71-32.452 4.456-3.616 7.858-7.825 12.017-10.749a310.852 310.852 0 0 1 56.519-34.281 308.18 308.18 0 0 1 30.452-12.621c5.222-1.713 10.362-3.673 15.649-5.173l8.1-2.3c1.919-.527 3.879-1.153 5.774-1.59l2.866-.692c.544-.313.84.082 1.112.544l.9 1.194a68.092 68.092 0 0 1 4.316 6.342l.84 1.54.568 1.178a19.281 19.281 0 0 1 1.293 3.9l.091.486.371-.494.725-.98 1.4-1.886 3.023-4 7.108-8.755 1.145-1.392 1.8-.181 3.6-.338 4.843-.379 9.135-.578c6.079-.354 12.1-.684 17.939-1.227 19.455-1.8 39-5.008 58.175-5.271a139.626 139.626 0 0 1 21.069 1.82 257.807 257.807 0 0 1 28.7 5.914 115.867 115.867 0 0 1 14.175 4.736c1.178.527 2.339 1 3.55 1.664l1.845.988 2.331 1.581a14.592 14.592 0 0 1 3.789 4.036 6.013 6.013 0 0 1 1.027 2.513c.535.782.379 1.763.6 2.627l.14 7.1c.082 3.443-.577 6.581-.412 10.238.115 2.776 1.063 4.95.914 8.047-.255 25.731-3.888 51.726-8.36 76.93-2.356 13.228-5.082 26.818-8.492 39.816a469.334 469.334 0 0 1 -15.419 47.393c-3.113 8.022-6.49 16.07-10.287 24.067-1.845 4.011-3.855 8-5.947 11.976-1 2-2.158 3.978-3.27 5.963l-1.689 2.973-2.323 3.739-1.73 2.768-.865 1.384a5.139 5.139 0 0 1 -1.491.568l-5.8 1.8c-2.191.717-4.456 1.26-6.68 1.894-4.505 1.12-9.052 2.15-13.681 2.866a108.32 108.32 0 0 1 -28.729 1.219c-1.343-.2-2.578-.321-4.061-.659a25.4 25.4 0 0 1 -5.79-1.919c-1.071-.3-1.738-1.227-2.578-1.886l-2.026-2.018-2.191-2.216c-2.973-2.891-5.708-6.037-8.821-8.731l-9.283-8.064c-3.163-2.562-6.5-4.868-9.711-7.306-37.918-27.719-85.824-37.051-126.306-35.149-47.336 1.754-95.849 16.243-142.344 37.015-8.41 1.639-23.515 8.113-22.165 2.66 4.036-3.657 15.312-9.8 27.057-15.089 11.737-5.321 23.853-9.925 28.993-12.248 11.235-5.1 23.482-7.413 34.989-10.37 21.679-5.65 43.448-10.115 65.588-12.388 22.123-2.067 44.716-1.713 66.947 2.767 23.977 4.711 46.322 14.949 66.074 27.354a236.7 236.7 0 0 1 29.413 21.967c2.315 1.969 4.4 4.192 6.622 6.268l5.9 5.65c1.244.675 4 .972 6.828 1.161a74.556 74.556 0 0 0 8.467-.049 133.078 133.078 0 0 0 33.819-6.878c.5-.329 1.392-.181 1.59-.914l1.524-2.636 4.184-7.767c2.71-5.271 5.238-10.691 7.767-16.152 7.512-16.794 14.7-33.918 20.32-51.643a457.671 457.671 0 0 0 17.832-89.26c.741-8.731 1.606-21 1.977-29.619.28-5.156 1.417-8.8 1.367-13.961l-.061-16.57a2.483 2.483 0 0 0 -1.5-2.3 40.9 40.9 0 0 0 -5.024-2.5 114.377 114.377 0 0 0 -12.775-4.25c-13.368-3.476-26.95-6.359-39.61-6.12-13.277.107-26.555 1-39.651 2-13.113 1.013-26.126 2.216-39.173 3.517l-9.785.988-4.909.511c-1.326.173-1.079.058-1.6.272l-15.1 18.442-4.094-.255-2.092-.14-1.062-.074c-.189-.091-.255-.239-.42-.362-1.128-.939-2.833-2.026-7.026-3.871a33.8 33.8 0 0 0 -2.282-7.075l-.865-1.771-.206-.346c-.28-.469-.577-1.054-1.178-.667l-11.377 3.183-13.7 4.464c-8.9 3.27-17.709 6.243-26.069 10.032-5.642 2.3-13.442 5.461-18.079 8.129-14.523 7.491-28.323 18.297-42.259 28.659-19.587 15-37.773 30.525-51.866 50.573a223.236 223.236 0 0 0 -16.111 17.387l-9.134 11.128c-2.743 3.879-5.313 7.693-7.487 11.161-3.245 5.131-5.148 12.454-10.329 18.928-.9 1.079-.461-1.244-1.911 1.285-.634 1.112-.206 2.314-2.117 5.5-3.163 5.024-6.507 10.839-9.645 17.149-3.155 6.3-6.738 12.734-9.324 19.545-5.42 4.135-11.6 18.392-15.625 19.825-5.008 1.8-1.853-12.52 3.739-25.97 4.86-10.988 16.654-29.792 26.505-45.515 3.155-5.6 6.952-11.844 10.905-18.071 3.89-6.267 8.222-12.309 13.336-16.761z" fill="#040405" fill-rule="evenodd" transform="translate(38.638 -24.247)"/><path d="m68.261 239s41.479-112.482 56.739-208.553c-.058 19.718-23.128 171.008-40.277 221.21-.936 3.171-16.462-12.657-16.462-12.657z" fill="#040405" transform="translate(324.797 20.62)"/><path d="m175.856 27.925-13.343 73.841 7.924-66.329-8.764 40.886 4.176-43.39-14.117 78.182 5.428-49.947-19.545 77.086 15.2-96.631-14.115 65.142 2.174-35.829-15.2 60.8 6.573-89.029-22.218 127.777s4.143-45.721 8.813-94.111c-10.312 67.548-46.874 179.252-50.1 186.954 0 0 37.452 5.939 57.063-.527 56.31-123.278 50.051-234.875 50.051-234.875z" fill="#fff" opacity=".2" transform="translate(328.255 2.369)"/><path d="m74.822 58.122a210.8 210.8 0 0 0 2.7-27.675c-.904 9.126-1.81 18.442-2.7 27.675z" fill="#fff" opacity=".2" transform="translate(372.276 20.62)"/><path d="m403.744 26.978-43.909 153.241 33.045-139.033-33.02 123.3 21.74-112.848-35.117 136.25 28.425-114.513-30.929 108.245 23.821-101.557-19.224 69.8 14.207-112.853-37 104.786 14.851-70.513-29.256 95.709 28.836-130.4-49.731 118.283 17.972-101.985-33.855 94.037 11.287-75.227-29.677 74.4 14.628-89.021-34.272 91.521 10.444-72.722-18.746 48.859 6.63-72.259-34.694 99.885 5.016-78.577-19.644 79 4.186-60.186-14.628 68.543 2.084-71.889-22.568 76.065 1.672-58.513-13.377 59.354v-36.36l-22.148 58.093 3.344-59.765-10.452 45.972-.412-24.24-6.688 43.464-.42-44.725-18.8 52.665v-39.289l-12.965 41.381v-28.836l-5.436 31.76-2.512-28.836-9.176 36.9-2.94-11.408-5.436 25.912-3.756-11.284-7.524 27.584-6.268-11.284-2.092 17.136c228.622-106.783 317.64 14 325.583 16.3 48.481-178.671 48.901-240.322 48.901-240.322z" fill="#fff" opacity=".2" transform="translate(42.563 -4.484)"/><path d="m45.862 59.72-5.434-6.712-12.091 11.139 1.544 5.162 6.712.32z" fill="#040405" transform="translate(35.882 183.885)"/><path d="m58.89 29.659s10.386 10.065 1.91 48.901c.166 1.44 23.335-41.068 33.087-51.94l-21.094 11.193-10.073-10.707z" fill="#040405" transform="translate(256.983 -7.075)"/><path d="m60.368 145.864s36.109-66.8 40.483-108.08c-1.104 23.548-20.651 108.352-25.624 116.094-4.975-5.37-14.859-8.014-14.859-8.014z" fill="#040405" transform="translate(267.678 73.714)"/><path d="m54.874 104.3s18.87-39.313 20.237-63.117c.016 13.541-8.854 62.73-11.5 67.309-2.996-2.952-8.737-4.192-8.737-4.192z" fill="#040405" transform="translate(227.921 98.283)"/><path d="m77.994 119.948a72.107 72.107 0 0 1 29.108-6.466c16.168 0 22.955-5.131 27.65-2.166s-17.947 8.632-28.457 8.632-36.381 4.045-28.301 0z" fill="#161615" transform="translate(384.095 599.162)"/><path d="m76.892 122.975a54.972 54.972 0 0 1 21.094-8.5c12.165-2.01 16.63-6.721 20.526-5.074s-12.421 8.731-20.328 10.04-26.868 7.578-21.292 3.534z" fill="#161615" transform="translate(379.942 589.496)"/><path d="m77.612 112.6a54.992 54.992 0 0 1 22.478 3.426c11.5 4.464 17.742 2.685 20.254 6.087s-15.144 1.187-22.611-1.713-26.983-7.155-20.121-7.8z" fill="#161615" transform="translate(382.056 614.398)"/><g fill="#040405"><path d="m90.757 154.9c-.478-13.03-1-26.069-1.425-39.107-.272-8.377 2.487-11.325 10.823-11.589 10.271-.321 20.517-.964 30.829-.321 17.9 1.12 31.315 17.643 28.029 35.088-3.2 16.926-14.06 26.382-31.5 27.411-16.391.964-16.415.988-15.888 17.313.132 4.176.338 8.36.387 12.536.074 5.749-2.5 8.78-7.652 9.217-7.915.675-11.177-1-11.638-7.462-.972-13.5-1.285-27.049-1.87-40.573-.038-.841-.062-1.673-.095-2.513zm19.158-18.919a45.234 45.234 0 0 0 .247 5.51c.725 4.423 4.25 7.347 8.508 6.836a85.575 85.575 0 0 0 11.927-2.166c7.331-1.96 10.592-9.489 7.5-16.358-3.319-7.38-12.495-8.7-21.324-7.306-5.886.931-7.591 4.794-6.858 13.483z" transform="translate(477.147 550.051)"/><path d="m120.129 153.772c-.5-13.714-1.12-27.428-1.466-41.15-.189-7.388 3.855-10.74 11.226-9.867 5.255.626 7.446 2.916 7.718 8.714.577 12.207.98 24.421 1.45 36.628.091 2.372 0 4.983 2.792 5.873 3.006.955 4.135-1.7 5.362-3.575 3.888-5.873 7.578-11.869 11.408-17.783 3.558-5.477 11.655-8.146 17.832-5.971 3.929 1.392 4.25 4.052 2.24 7.108-4.6 7.009-9.365 13.912-14.085 20.847-5.593 8.22-5.436 10.938 1.145 18.565 5.823 6.729 11.688 13.417 17.453 20.188 1.507 1.763 3.262 3.682 2.24 6.276-1.1 2.792-3.847 2.043-6.1 2.487-9.48 1.862-16.177-1.672-21.25-9.653-3.039-4.785-6.968-9.019-10.518-13.483-1.054-1.31-2.174-2.718-4.143-2.331-2.306.453-2.817 2.537-2.866 4.258-.124 4.505.2 9.019.3 13.533.148 6.919-1.532 8.978-7.536 9.324-9.159.519-11.086-.643-11.5-8.368-.741-13.862-1.087-27.749-1.6-41.628z" transform="translate(689.486 542.901)"/><path d="m109.97 147.184q-.519-14.047-1.03-28.1c-.3-8.41 4.645-12.272 12.9-9.694 4.25 1.334 8.294 1.557 12.256-.379 20.822-10.172 42.6 3.657 44.057 27.93.758 12.528 1.087 25.089 1.392 37.633.173 6.779-1.458 8.269-8.154 8.574-9.06.42-10.419-.362-10.905-7.652-.733-11.012-1.137-22.058-1.68-33.086a25.9 25.9 0 0 0 -2.553-10.633c-2.924-5.774-6.976-8.475-12.651-8.162a14.227 14.227 0 0 0 -12.849 9.727 38.591 38.591 0 0 0 -1.59 13.376c.362 9.876.766 19.743 1.071 29.61.2 6.738-1.878 8.434-10.337 8.714-6.9.231-8.55-1.178-8.813-7.751-.405-10.034-.743-20.075-1.114-30.107z" transform="translate(619.082 564.703)"/><path d="m168.735 143.833c.362 9.711.8 19.414 1.046 29.125.181 7.232-3.146 10.609-10.189 9.159-6.737-1.392-12.544-.4-19.018 1.853-18.8 6.565-36.414-4.629-39.4-24.323-2.207-14.62-1.7-29.4-2.331-44.115-.214-5.066 2.965-7.339 9.184-7.528 6.54-.2 9.521 1.828 9.843 7.339.535 9.192.741 18.409 1.079 27.609a58.946 58.946 0 0 0 2.52 15.3 12.95 12.95 0 0 0 12.742 9.546 13.454 13.454 0 0 0 13.261-9 34.533 34.533 0 0 0 2.125-13.286c-.371-10.049-.766-20.089-1.03-30.129-.173-6.655 2.183-8.97 8.986-9.208 7.347-.255 9.826 1.738 10.131 8.541.453 9.7.741 19.414 1.1 29.125z" transform="translate(546.067 568.424)"/><path d="m133.669 149.822c-9.406.461-19.6-6.5-23.326-17.84a26.13 26.13 0 0 1 42.171-27.765c5.362 4.8 7.816 11.078 8.319 18.112.2 2.875-1.458 4.942-3.9 6.268-1.787.972-1.853 1.845-.362 3.113 2.043 1.746 1.8 3.665.453 5.766-4.848 7.536-11.585 11.852-23.355 12.346zm.618-30.541v-.033a62.837 62.837 0 0 0 8.467-.494c3.69-.7 4.316-2.94 1.985-5.831-4.785-5.914-16.506-4.983-20.435 1.656-.634 1.079-1.524 2.232-.6 3.591.89 1.326 2.24 1.548 3.731 1.458 2.28-.149 4.565-.24 6.851-.347zm-.362 9.851c-1.606.082-2.372.049-3.122.173a26.549 26.549 0 0 0 -3.2.675c-3.179.906-3.6 2.767-1.161 5.107 3.945 3.805 11.235 4.374 16.053 1.219q3.126-2.039 6.194-4.184c.758-.527 2.224-.651 2.043-1.8-.214-1.318-1.68-1.145-2.7-1.26-4.982-.58-9.965.738-14.108.07z" transform="translate(620.126 506.863)"/><path d="m104.11 129.461c-.445-8.97-.914-17.939-1.326-26.909-.189-4.234 1.8-6.3 5.93-6.309 4.061-.008 6.293 2.216 6.169 6.227a22.13 22.13 0 0 0 .4 5.8c1.013 4.308 2.306 5.214 6.392 3.328 4.407-2.026 8.657-1.672 13.006-.28 7.94 2.553 12.058 8.352 13.038 16.243a250.883 250.883 0 0 1 1.9 25.237c.124 5.411-1.318 7.2-5.873 7.471-4.514.272-6.424-1.334-6.738-5.906-.461-6.7-.774-13.393-1.219-20.089a24.032 24.032 0 0 0 -1.606-7.24 8.68 8.68 0 0 0 -8.533-5.378 8.323 8.323 0 0 0 -7.6 5.708 23.153 23.153 0 0 0 -1.186 8.624c.346 6.268.675 12.536.881 18.8.255 7.569-3.715 8.014-9.488 6.581-2.405-.593-2.693-2.866-2.8-5l-1.334-26.909z" transform="translate(574.535 496.757)"/><path d="m111.711 136.157c-.329-6.589-.634-13.187-.98-19.768-.3-5.675-1.721-7.018-7.38-7.067-3.3-.033-5.148-1.548-5.593-4.612a5.986 5.986 0 0 1 4.225-6.8 9.609 9.609 0 0 1 1.944-.264c8.162-.436 16.333-.906 24.5-1.252 4.448-.181 6.507 1.878 6.5 6.186-.008 3.286-1.45 4.917-4.777 5.4-6.046.873-7.133 2.174-6.853 8.319q.914 19.928 1.87 39.865c.206 4.374-1.417 6.1-5.84 6.284-4.571.189-6.35-1.285-6.581-5.551-.36-6.911-.689-13.83-1.035-20.74z" transform="translate(537.744 497.746)"/><path d="m182.414 160.243c-.577 3.089-2.8 4.934-5.313 6.334-2.562 1.433-3.155 2.743-.692 4.818 3.146 2.66 2.817 5.568.815 8.912-8.937 14.949-26.069 22.082-43.588 17.98-16.72-3.921-29.2-18.425-30.311-35.261-1.7-25.467 17.462-45.589 42.2-44.329a39.207 39.207 0 0 1 36.307 30.426c.181.791.1 1.688 1.12 2l.049 1c-1.608 2.609-.348 5.418-.587 8.12zm-40.269-8.022c4.2-.214 8.475-.008 12.594-.725 6-1.046 7.133-4.621 3.352-9.217-7.619-9.25-26.225-7.38-31.867 3.2-2.273 4.258-.585 7.256 4.308 7.265 3.868.003 7.743-.344 11.614-.524zm-2.166 15.155c-2.759-.124-5.329.807-7.965 1.326-2.067.4-4 1.2-4.489 3.451-.445 2.059 1.153 3.369 2.479 4.621 6.177 5.873 17.387 6.63 24.85 1.7 3.212-2.117 6.416-4.266 9.579-6.482 1.137-.8 3.443-.931 2.965-2.833-.478-1.919-2.7-1.631-4.291-1.82-7.707-.919-15.418 1.247-23.127.036z" transform="translate(577.797 658.844)"/><path d="m86.979 117.811a5.271 5.271 0 0 0 .049-.881l6.07-.3a2.709 2.709 0 0 0 .132.89z" transform="translate(460.251 644.253)"/><path d="m110.567 117.029 6.252-.3c11.218 1.3 19.677 6.548 24.232 17.066 2.99 6.894.568 10.493-7.018 11.062-4.917.371-8.97-1.12-12.017-5.008-2.957-3.772-6.589-5.733-11.449-4.118-3.929 1.3-6.169 4.143-6.26 8.237-.124 5.123 2.7 8.541 7.322 10.362 4.365 1.721 8.9 3.039 13.343 4.6 21.629 7.578 30.294 28.869 18.952 47.369-6.77 11.053-17.626 15.748-30.1 15.007-13.1-.782-23.417-7.182-28.976-19.537-2.537-5.642-.4-8.772 5.527-10.222 6.878-1.688 11.754.6 15.707 6.087 3.336 4.612 8.138 5.848 13.492 4.489a11.311 11.311 0 0 0 8.706-8.854c1.293-5.535-1.656-11.292-7.965-14.142-6.112-2.759-12.528-4.868-18.779-7.347a27.669 27.669 0 0 1 -17.8-27.181 29.321 29.321 0 0 1 19.381-26.332c2.459-.859 4.983-.785 7.45-1.238z" transform="translate(436.663 645.035)"/><path d="m130.742 171.488c.387 5.486.107 11.029 1.54 16.44 1.639 6.21 4.876 9.068 11.259 9.538 7.849.585 11.869 6.672 9 13.9-1.128 2.833-3.97 3.591-6.663 3.789-17.313 1.227-30.113-5.626-32.493-26.151-.955-8.286-.922-16.687-1.408-25.039-.338-5.823-1.828-7.388-7.652-7.709-3.155-.173-6.145-.264-7.446-3.814a12.824 12.824 0 0 1 .651-11.136c1.458-2.586 4.283-2.422 6.787-2.364 4.769.107 6.927-1.878 6.1-6.721a31.475 31.475 0 0 1 -.28-4.5c-.247-8.722 6.1-13.047 14.447-9.909 2.817 1.063 3.41 3.336 3.723 5.971 1.516 12.767 1.54 12.783 14.678 13.195 4.374.132 6.268 2.347 6.532 6.581.469 7.487-.453 9.686-5.362 10.444a90.425 90.425 0 0 1 -9.571.725c-3.122.14-4.687 1.565-4.439 4.736.016.165.016.329.025.5q.288 5.759.572 11.524z" transform="translate(524.964 645.448)"/><path d="m112.8 148.329c.329 6.507-.132 13.187 1.186 19.5 1.367 6.523.016 12.89.618 19.315.56 6.07-2.52 8.385-10.049 8.681-6.408.247-8.673-1.639-9-7.882q-1.532-29.046-2.908-58.1c-.329-7.018 2.216-9.884 8.7-10.164 7.092-.3 10 2.15 10.452 9.11.42 6.507.667 13.03.988 19.545z" transform="translate(501.033 666.136)"/><path d="m102.126 134.453c-6.482.288-9.349-2.282-9.653-8.648-.272-5.766 2.7-8.9 8.723-9.176 6.729-.313 10.353 2.652 10.493 8.6.14 5.509-3.435 8.952-9.563 9.224z" transform="translate(499.885 644.118)"/></g><path d="m126.307 135.313a5.809 5.809 0 0 1 -.6 2.207 2.9 2.9 0 0 1 -2.545 1.837c-1.977.115-3.953.3-5.93.247-2.6-.091-3.945-1.516-4.168-4.135-.066-.766-.066-1.548-.1-2.315h.025c-.033-.988-.148-1.985-.1-2.973a3.67 3.67 0 0 1 3.534-3.673 57.105 57.105 0 0 1 5.939-.222 3.662 3.662 0 0 1 3.764 3.426 50.9 50.9 0 0 1 .181 5.601z" fill="#161615" transform="translate(647.668 714.125)"/><path d="m158.44 153.4a21.985 21.985 0 0 1 -10.493 11.432 23.219 23.219 0 0 1 -18.9.923 22.078 22.078 0 0 1 -14.15-19.792 22.209 22.209 0 0 1 3.286-13.17 21.487 21.487 0 0 1 12.948-9.571 23.563 23.563 0 0 1 15.806 1.26c5.008 2.076 8.426 5.9 10.914 10.592a2.918 2.918 0 0 1 -2.356 4.407 33.145 33.145 0 0 1 -4.9.593 9.289 9.289 0 0 1 -5.5-1.936c-.535-.387-.972-.9-1.491-1.3a9.847 9.847 0 0 0 -11.152-.774 8.6 8.6 0 0 0 -4.349 6.993 13.46 13.46 0 0 0 .519 5.889c2.282 5.947 8.607 7.553 13.656 4.975a12.5 12.5 0 0 0 2.883-2.158 7.59 7.59 0 0 1 5.329-2.29c1.754-.041 3.517-.206 5.271-.132 2.448.092 3.639 1.871 2.679 4.059z" fill="#161615" transform="translate(662.03 686.018)"/><path d="m164.211 154.159a20.093 20.093 0 0 1 -5.518 7.322 26.551 26.551 0 0 1 -7.355 4.333 19.642 19.642 0 0 1 -7.133 1.153 22.072 22.072 0 0 1 -17.33-6.589 20.392 20.392 0 0 1 -4.917-8.113 22.4 22.4 0 0 1 2.092-19.661c3.377-5.543 8.426-8.731 14.834-9.966a24.222 24.222 0 0 1 12.347.8c7.479 2.5 12.132 7.635 14.183 15.254a22.785 22.785 0 0 1 -1.203 15.467zm-12.388-14.546c-3.047-5.873-10.988-7.158-15.3-2.166-4.151 4.81-4.052 11.622 1.969 15.847a8.165 8.165 0 0 0 6.622 1.343c5.551-1.252 8.072-5.387 7.9-10.535a8.813 8.813 0 0 0 -1.191-4.489z" fill="#161615" transform="translate(703.57 684.505)"/><path d="m192.77 158.346a18.362 18.362 0 0 1 -.5 4.234 2.644 2.644 0 0 1 -2.29 2.117 27.859 27.859 0 0 1 -6.573.313 3.137 3.137 0 0 1 -3.047-2.537 29.672 29.672 0 0 1 -.692-4.555c-.28-5.288-.453-10.576-.692-15.872a20.063 20.063 0 0 0 -.214-2.619 5.965 5.965 0 0 0 -7.668-4.72c-2.858.807-4.324 2.026-4.695 6.013a59.89 59.89 0 0 0 .107 9.867c.28 3.5.33 7.026.4 10.551a7.557 7.557 0 0 1 -.544 2.57 2.933 2.933 0 0 1 -2.117 1.927 17.79 17.79 0 0 1 -7.191.313 3.616 3.616 0 0 1 -3.064-3.072 18.729 18.729 0 0 1 -.206-2.636c-.189-4.851-.313-9.686-.568-14.537a55.286 55.286 0 0 0 -.766-5.543 5.8 5.8 0 0 0 -3.682-4.341c-2.191-1.021-5.7.189-6.993 2.282a11.831 11.831 0 0 0 -1.565 6.655c.124 5.831.437 11.655.651 17.478a7.643 7.643 0 0 1 -.206 2.257 2.764 2.764 0 0 1 -2.282 2.15c-2.067.3-4.151.6-6.235.7-1.664.074-3.641-1.755-3.962-3.435a15.736 15.736 0 0 1 -.173-1.969c-.214-3.089-.511-6.153-.618-9.217-.255-7.619-.437-15.2-.634-22.8a6.9 6.9 0 0 1 .082-1.647 3.711 3.711 0 0 1 2.652-3.072 11.629 11.629 0 0 1 6.5-.189 21.477 21.477 0 0 0 3.879.609 5.482 5.482 0 0 0 3.136-.821 14.4 14.4 0 0 1 10.831-1.491 21.92 21.92 0 0 1 4.217 1.829c.585.3 1.03.848 1.6 1.17 2.487 1.433 4.135 1.211 5.741-.313a14.711 14.711 0 0 1 7.849-3.888c8.863-1.5 15.839 3.253 17.923 11.21a30.56 30.56 0 0 1 .8 5.551c.214 3.064.264 6.153.387 9.233h.058c.133 3.416.322 6.826.364 10.245z" fill="#161615" transform="translate(747.938 681.916)"/><g fill="#fff" fill-rule="evenodd" opacity=".35"><path d="m253.576 27.593c-2.693.626-14.57 7.215-17.116 8.2-2.142.922-5.115 1.573-7.784 2.578-6.878 2.908-11.885 3.492-17.371 5.856-4.267 1.738-7.528 5.115-11.342 4.6-14.686 9.456-32.328 15.2-47.7 27.452-4.234 3.608-9.834 7.133-14.43 11.416-1.927 1.82-3.3 3.731-5.255 5.436a182.955 182.955 0 0 0 -15.178 14.579c-4.884 5.14-9.909 9.81-14.208 14.669-4.209 4.942-8.064 9.694-11.259 14.315-5.947 4.761-10.765 11-15.732 17.206-4.95 6.227-9.769 12.668-14.076 19.257-.89 1.285-1.244 2.5-2 3.566-.56.782-1.408.329-1.977 1.021-.412.5-.4 2.3-.807 2.776-.988 1.153-2.232 1.318-3.179 2.669a137.14 137.14 0 0 0 -9.167 15c-1.038 1.829-1.466 3.995-2.438 5.683-3.706 6.375-11.334 13.491-10.749 18.713 3.377 1.639 3.863-2.529 6.935-3.534a5.15 5.15 0 0 0 .247-2.232c6.2-8.632 9.513-18.071 15.551-26.637 2.875-3.986 6.548-7.816 9.489-12.108.807-1.161 1.219-3.188 1.993-4.382a78.427 78.427 0 0 1 10.139-12.627 123.96 123.96 0 0 0 10.518-12.742c1.054-1.5 1.557-3.295 2.734-4.744 3.822-4.357 8.525-7.874 12.388-12.149.634-.7.947-2.306 1.623-3.113 1.161-1.367 2.537-2.438 3.7-3.838 4.184-4.6 8.1-8.9 11.885-13.055a112.579 112.579 0 0 1 11.735-11.794c6.573-5.922 12.717-12.182 19.768-17.338a58.658 58.658 0 0 1 14.512-8.392 44.716 44.716 0 0 1 10.3-7.191c3.748-1.878 7.693-3.27 11.21-4.958 4.555-2.282 8.937-5.766 14.612-6.416.181-1.82 2.2-1.993 3.278-2.553a152.635 152.635 0 0 1 14.258-5.724c4.991-1.491 9.843-3.262 14.439-4.761 3.863-1.524 12.594-3.912 17.964-6.589 1.573 2.092 4.291 9.365 1.73 34.412 0 0 7.281-25.286 2.685-37.929-1.601-.71.546-4.779-1.925-4.598z" transform="translate(60.764 -.074)"/><path d="m215.307 38.937a2.483 2.483 0 0 0 -1.351.42c-4.761-2.858-10.04-3.13-15.057-4.95-2.364-.857-12.964-2.422-15.567-3.122-.708-.181-1.853.362-2.57.231-5.321-.988-10.609-4.069-16.44-4.094-.964.008-1.919.577-2.875.5-2.965-.173-5.971-1.524-8.945-1.54-.494-.008-1.227.832-1.763.857-.922.041-1.812-.28-2.751-.206-6.367.642-11.778 1.845-17.354 2.43-4.448.445-8.78 1.5-13.137 1.96a22.068 22.068 0 0 1 -8.508-.865c-4.028 2.034-8.533.494-12.536.313-2.611-.14-5.247 1.367-8.154-.231-.329 1.6-1.359.964-1.969 1.054-4.975.774-10.666.148-15.534 1.17-2.932.6-7.569 1.474-8.031 5.362.815.857 1.367 2.158 2.57 2.331 1.318-.2 2.249-1.672 3.542-2.166 1.1-.42 2.627-.338 4-.684 3.632-.906 6.169-.14 9.11-.4 2.257-.2 4.25-2.3 6.07-.231 8.385-3.319 17.733.115 27.238-1.672 2.718-.527 5.988-.469 9.06-1.038a36.131 36.131 0 0 1 3.674-.972c3.731-.321 7.009-.972 10.411-1.31 7.05-.7 13.607-.626 19.274-1.688 7.322 2.438 15.444 2.743 23.087 4.752.758.2 1.441-.049 2.067.14.453.148.264 1.087.667 1.277.3.14 1.268-.659 1.557-.5.684.362.832 1.359 1.606 1.606 2.677.873 13.8 1.367 16.679 2.265.988.313 2.216-.041 3.138.288 3.558 1.236 6.869 5.815 10.09 3.871 1.544-3.421-1.026-2.729-1.298-5.158z" transform="translate(285.031 -8.782)"/></g><path d="m121.938 32.412c-.074.593.2 1.334.148 1.688-.189 1.285-.824 2.586-1.054 4.1-1.878 12.824-5.321 27.123-8.5 40.1l-1.862 7.924c-.56 2.627-.708 5.247-1.318 7.726-.222.873-.9 1.516-1.17 2.38-.239.783.049 1.565-.165 2.323-.511 1.845-1.268 3.418-1.73 5.247-1.038 4.159-1.771 8.517-2.949 12.693-.577 2.092-1.483 4.094-2.084 6.161l-4.53 16.292c-1.071 3.665-2.57 7.108-3.7 10.757l-2.792 10.032-7.207 21.226c-.445 1.4-.527 2.792-.955 4.151-1.73 5.568-4.39 11.194-6.342 17.05-.931 2.751-1.977 5.51-3.039 8.228-.939 2.422-1.68 5.584-3.855 6.845-1.4-.7-.9-1.746-.725-3.426.189-1.771.956-2.784 1.936-5.156 2.084-5.049 3.657-10.675 6.532-18.656 5.5-15.386 11.259-32.716 16.8-51.479l2.183-7.816c3.253-10.493 6.663-22.568 9.447-33.721 1.293-4.942 2.142-10.04 3.3-14.9 1.474-6.087 4.505-13.121 4.909-16.967 3.409-11.338 8.96-34.754 8.722-32.802z" fill="#fff" fill-rule="evenodd" opacity=".25" transform="translate(322.046 34.008)"/><path d="m98.239 38.411c-.066.313.041.717 0 .906-.165.667-.568 1.318-.766 2.109-1.631 6.68-4.168 14.06-6.49 20.756l-1.375 4.094c-.428 1.359-.634 2.735-1.087 4.019-.156.445-.544.75-.733 1.194-.165.4-.049.832-.2 1.219-.371.947-.84 1.738-1.178 2.685-.758 2.142-1.367 4.407-2.191 6.556-.412 1.079-.988 2.092-1.408 3.146l-3.211 8.385c-.741 1.878-1.7 3.624-2.487 5.494l-1.977 5.164-4.86 10.848c-.3.717-.42 1.45-.717 2.142-1.186 2.858-2.875 5.7-4.2 8.69-.626 1.408-1.318 2.817-2.018 4.2-.618 1.236-1.161 2.866-2.372 3.426-.708-.445-.387-.972-.214-1.853a10.132 10.132 0 0 1 1.277-2.619c1.359-2.57 2.471-5.461 4.39-9.538 3.665-7.849 7.578-16.712 11.441-26.349l1.54-4.019c2.24-5.378 4.645-11.589 6.672-17.338.931-2.545 1.639-5.2 2.487-7.709 1.086-3.139 3.038-6.705 3.438-8.719 2.368-5.811 6.47-17.9 6.239-16.889z" fill="#fff" fill-rule="evenodd" opacity=".25" transform="translate(268.848 77.815)"/><path d="m73.719 41.873c-.033.173.041.4.016.5-.074.379-.288.758-.379 1.2-.75 3.772-1.993 7.957-3.138 11.754l-.675 2.323c-.206.774-.288 1.54-.511 2.273-.082.255-.288.437-.379.684-.082.231-.016.469-.091.684-.181.544-.428 1-.593 1.532-.371 1.219-.659 2.5-1.071 3.723-.206.609-.5 1.186-.717 1.787l-1.589 4.767c-.379 1.071-.873 2.067-1.268 3.13l-.98 2.932-2.463 6.186c-.157.412-.206.815-.354 1.219-.593 1.623-1.474 3.245-2.141 4.95-.321.807-.667 1.606-1.03 2.4-.313.708-.585 1.631-1.252 1.969-.4-.231-.239-.527-.156-1.03a5.451 5.451 0 0 1 .652-1.496c.7-1.466 1.252-3.113 2.232-5.436 1.861-4.472 3.838-9.521 5.774-15.007l.766-2.282c1.128-3.056 2.328-6.589 3.328-9.851.461-1.441.791-2.94 1.211-4.365.527-1.779 1.54-3.822 1.721-4.958 1.176-3.303 3.185-10.161 3.087-9.588z" fill="#fff" fill-rule="evenodd" opacity=".25" transform="translate(227.699 103.058)"/><path d="m129.593 31.944c-.074.593.206 1.334.148 1.689-.19 1.285-.824 2.586-1.046 4.1-1.878 12.816-.889 27.032-4.061 40.005l-1.861 7.924c-.568 2.627-.708 5.247-1.326 7.726-.222.873-.173 1.8-.437 2.66-.239.783.049 1.573-.165 2.323-.519 1.845-1.268 3.418-1.738 5.247-1.03 4.159-1.771 8.517-2.949 12.7-.577 2.092-.931 4.777-1.524 6.845-1.524 5.469-1.194 5.634-2.7 11.078-1.071 3.665-3.739 11.226-4.868 14.875-.906 3.253-1.779 7.215-2.7 10.543-2.4 7.042-6.128 14.093-8.517 21.119-.445 1.4-.527 2.792-.955 4.151-1.721 5.568-4.39 11.194-6.342 17.05-.931 2.751-7.891 12.824-8.961 15.542-.939 2.422-1.68 5.584-3.855 6.845-1.4-.7-.9-1.746-.725-3.426.189-1.771.955-2.784 1.936-5.156 2.084-5.049 9.587-17.989 12.462-25.97 5.494-15.378 12.66-32.477 18.195-51.248l2.183-7.808c3.253-10.493 5.271-22.807 8.055-33.959 1.285-4.934 2.141-10.04 3.295-14.892 1.474-6.1 3.361-17.083 3.772-20.929 1.348-14.052 4.931-30.986 4.684-29.034z" fill="#fff" fill-rule="evenodd" opacity=".25" transform="translate(371.964 30.333)"/><path d="m52.732 49.111-8.483 17.758s-.791 10.345 37.114-3.443c40.293-11.663 51.693-9.546 51.693-9.546l-102.595 35.788-.791-10.073z" fill="#040405" transform="translate(45.53 155.683)"/></svg>